<?xml version="1.0" encoding="utf-8"?>
<!-- Generator: Adobe Illustrator 22.0.1, SVG Export Plug-In . SVG Version: 6.00 Build 0)  -->
<svg version="1.1" id="Layer_1" xmlns="http://www.w3.org/2000/svg" xmlns:xlink="http://www.w3.org/1999/xlink" x="0px" y="0px"
	 viewBox="0 0 3161.6 1176.2" style="enable-background:new 0 0 3161.6 1176.2;" xml:space="preserve">
<style type="text/css">
	.st0{clip-path:url(#SVGID_2_);fill:url(#SVGID_3_);}
	.st1{clip-path:url(#SVGID_5_);fill:url(#SVGID_6_);}
	.st2{clip-path:url(#SVGID_8_);fill:url(#SVGID_9_);}
	.st3{clip-path:url(#SVGID_11_);fill:url(#SVGID_12_);}
	.st4{fill-rule:evenodd;clip-rule:evenodd;fill:#0C53B5;}
	.st5{fill-rule:evenodd;clip-rule:evenodd;fill:#F4B1B1;}
	.st6{fill-rule:evenodd;clip-rule:evenodd;fill:#E98385;}
	.st7{clip-path:url(#SVGID_14_);fill:url(#SVGID_15_);}
	.st8{clip-path:url(#SVGID_17_);fill:url(#SVGID_18_);}
	.st9{clip-path:url(#SVGID_20_);fill:url(#SVGID_21_);}
	.st10{clip-path:url(#SVGID_23_);fill:url(#SVGID_24_);}
	.st11{clip-path:url(#SVGID_26_);fill:url(#SVGID_27_);}
	.st12{clip-path:url(#SVGID_29_);fill:url(#SVGID_30_);}
	.st13{clip-path:url(#SVGID_32_);fill:url(#SVGID_33_);}
	.st14{clip-path:url(#SVGID_35_);fill:url(#SVGID_36_);}
	.st15{clip-path:url(#SVGID_38_);fill:url(#SVGID_39_);}
	.st16{clip-path:url(#SVGID_41_);fill:url(#SVGID_42_);}
	.st17{fill-rule:evenodd;clip-rule:evenodd;fill:#000446;}
	.st18{clip-path:url(#SVGID_44_);fill:url(#SVGID_45_);}
	.st19{fill:#F4B1B1;}
	.st20{clip-path:url(#SVGID_47_);fill:url(#SVGID_48_);}
	.st21{clip-path:url(#SVGID_50_);fill:url(#SVGID_51_);}
	.st22{fill:#DBDCDC;}
	.st23{clip-path:url(#SVGID_53_);fill:url(#SVGID_54_);}
	.st24{fill-rule:evenodd;clip-rule:evenodd;fill:#89CCFB;}
</style>
<g>
	<defs>
		<path id="SVGID_1_" d="M71.5,198.1c135.9,288.5,407.3,315.7,590.2,316.8l2,0l-0.3,72.7l-2,0C459.9,586.3,161,559,5.7,229.1
			C0,197.8,49,176.7,71.5,198.1"/>
	</defs>
	<clipPath id="SVGID_2_">
		<use xlink:href="#SVGID_1_"  style="overflow:visible;"/>
	</clipPath>
	<linearGradient id="SVGID_3_" gradientUnits="userSpaceOnUse" x1="331.8328" y1="569.464" x2="331.8597" y2="193.097">
		<stop  offset="0" style="stop-color:#022FA0"/>
		<stop  offset="0.6782" style="stop-color:#197BDD"/>
		<stop  offset="1" style="stop-color:#24A1FB"/>
	</linearGradient>
	<rect y="176.7" class="st0" width="663.7" height="410.8"/>
</g>
<g>
	<defs>
		<path id="SVGID_4_" d="M916.1,540.7c14.8,64.8,97.6,215.6,98.1,289.8c0.5,77.1-5.1,124.6-10,197.9c-0.9,13.2,1.3,29.4,15.6,37.2
			c13,7.1,39.1,13,46.8,20.3c5.6,5.3,26.8,35.4-49.3,33.4c-54.1-1.4-67-5.2-72.8-14c-0.4-0.7-16.2-116.4-22.9-235.1
			c-2.4-43-104.9-183.3-112-195.1c-4.7,21-70.1,191.3-128.5,248.2c-85.5,83.3-168.5,147-168.4,147.1c0.9,6.5-3.9,11.6,5.7,22.3
			c3,10.6,10,29.1-42.4,28.7c-52.5-0.4-37.8-35.6-38-38.8c9.7-66.8,88.7-144.5,164.8-215.7c51.1-47.8,60.7-264.6,66.2-336.6
			c0,0,69.8-1,107.8-22.5c57.8-32.7,93.5-165.5,82.7-28.8C857.4,504.7,907.1,505.4,916.1,540.7"/>
	</defs>
	<clipPath id="SVGID_5_">
		<use xlink:href="#SVGID_4_"  style="overflow:visible;"/>
	</clipPath>
	<linearGradient id="SVGID_6_" gradientUnits="userSpaceOnUse" x1="749.2098" y1="1021.7697" x2="780.1745" y2="44.3886">
		<stop  offset="0" style="stop-color:#031542"/>
		<stop  offset="0.1083" style="stop-color:#051C4C"/>
		<stop  offset="0.2906" style="stop-color:#093066"/>
		<stop  offset="0.5245" style="stop-color:#115191"/>
		<stop  offset="0.7981" style="stop-color:#1B7DCB"/>
		<stop  offset="1" style="stop-color:#24A1FB"/>
	</linearGradient>
	<rect x="423.4" y="342.3" class="st1" width="670" height="779.7"/>
</g>
<g>
	<defs>
		<path id="SVGID_7_" d="M818.9,266.3c20,37.2,53.6,72.9,77.7,118c17.1,32,87.2-27.1,104.9-20.8c14.6,5.2,32.5-28.6,31.7-53.1
			c3.6-8.8-79.5,46.7-92.5,12.5C911.9,246.7,874.8,194,826,183.2C820.5,180.1,802.1,243.7,818.9,266.3"/>
	</defs>
	<clipPath id="SVGID_8_">
		<use xlink:href="#SVGID_7_"  style="overflow:visible;"/>
	</clipPath>
	<linearGradient id="SVGID_9_" gradientUnits="userSpaceOnUse" x1="795.6655" y1="384.683" x2="931.3087" y2="289.9417">
		<stop  offset="0" style="stop-color:#002990"/>
		<stop  offset="0.2247" style="stop-color:#0A4BAE"/>
		<stop  offset="0.5757" style="stop-color:#1879D8"/>
		<stop  offset="0.8457" style="stop-color:#2196F1"/>
		<stop  offset="1" style="stop-color:#24A1FB"/>
	</linearGradient>
	<rect x="802.1" y="180.1" class="st2" width="234.8" height="236.3"/>
</g>
<g>
	<defs>
		<path id="SVGID_10_" d="M648,346.5c10.8,47.7,28.3,169.3,28.2,251.5c99.6,11.6,193.5,1.1,251.5-20.9c-6.3-65-4.1-378.5-101.7-394
			c-66.3-14.7-153.5-4.2-187.8,33.4c-49.7,39.5-110,130.2-134.7,188.3c-23,54-26.6,118.3-26,126c1.8,23.9,23.6,25.4,35.3,19.7
			c13.1-6.3,10.7-56.6,50.3-118.2C585,398.4,632.2,365.4,648,346.5"/>
	</defs>
	<clipPath id="SVGID_11_">
		<use xlink:href="#SVGID_10_"  style="overflow:visible;"/>
	</clipPath>
	<linearGradient id="SVGID_12_" gradientUnits="userSpaceOnUse" x1="428.6836" y1="587.3436" x2="701.3894" y2="389.7452">
		<stop  offset="0" style="stop-color:#002990"/>
		<stop  offset="0.2247" style="stop-color:#0A4BAE"/>
		<stop  offset="0.5757" style="stop-color:#1879D8"/>
		<stop  offset="0.8457" style="stop-color:#2196F1"/>
		<stop  offset="1" style="stop-color:#24A1FB"/>
	</linearGradient>
	<rect x="476.9" y="168.5" class="st3" width="450.8" height="441.2"/>
</g>
<path class="st4" d="M648,346.5c10.4,48.5,21.8,146.5,23.4,208c22.4-65.6,1-207.8-5.4-233.4C657.8,334.3,654.2,331.7,648,346.5"/>
<path class="st5" d="M804.9,128.9c-6.2,14.2-15.3,25.4-25.9,31.2l1.5,20.1l3.1,2.3c12.1,11.6,1.1,37.5-12,37.4
	c-32.9,3.4-59.6-22.2-50.5-37.4l4-5l-0.6-28.5c-1.7,0-14.5-6.4-18.2-7.3c-3.7-0.9-9.5-7.7-10.3-15.2c-0.8-7.5,10.9-5.7,10.9-5.7
	c-15.1-18.4-31.8-33.2-12.1-51.6c19.6-18.4,66.4-31.1,66.4-31.1L789,26.7c-3.1,10,3.5,42.5,12,62.6
	C808.5,107.3,813.2,109.9,804.9,128.9"/>
<path class="st6" d="M738.1,152.2c0,0,17.6,26.7,31,28.5c13.4,1.8,6.5,0.3,11.4-0.6l-1.5-20.1C769.9,162,761,161.8,738.1,152.2"/>
<g>
	<defs>
		<path id="SVGID_13_" d="M786.4,69.4c-23,13.4-51,0.5-63.9,17.5c-6.4,8.4-5.1,20,3.5,37.4c2.5,5.2,5.8,8.9-3.4,5.2
			c-4.2-1.7-11.1-3.9-13.3-2c-4.9,4.4-1.8,13,2.4,15.5c1.9,1.2,5.4,2.8,5.4,2.8c-32.2-4.3-47-32.3-47.8-55.4
			c-0.3-7.8,0.2-14.9,1.4-21.1c-0.8-2.1-1.2-4.3-1.4-6.7c-0.5-10,5.4-18.9,14-22c1.1-10.6,9.3-19,19.7-19.6c3.1-0.2,6.2,0.4,8.9,1.5
			l1-0.3c3.5-6.8,10.4-11.6,18.6-12c5.8-0.3,11.1,1.6,15.2,4.9c5.4-8.2,13.9-13.7,23.7-14.2c17.5-0.9,32.5,14.2,33.6,33.8
			c0.7,12.3-4.3,23.4-12.4,30.3C790.2,66.6,788.4,68.1,786.4,69.4"/>
	</defs>
	<clipPath id="SVGID_14_">
		<use xlink:href="#SVGID_13_"  style="overflow:visible;"/>
	</clipPath>
	<linearGradient id="SVGID_15_" gradientUnits="userSpaceOnUse" x1="743.0648" y1="130.7644" x2="724.2075" y2="-44.0924">
		<stop  offset="0" style="stop-color:#031542"/>
		<stop  offset="0.1083" style="stop-color:#051C4C"/>
		<stop  offset="0.2906" style="stop-color:#093066"/>
		<stop  offset="0.5245" style="stop-color:#115191"/>
		<stop  offset="0.7981" style="stop-color:#1B7DCB"/>
		<stop  offset="1" style="stop-color:#24A1FB"/>
	</linearGradient>
	<rect x="668.8" class="st7" width="136" height="146"/>
</g>
<g>
	<defs>
		<path id="SVGID_16_" d="M961.9,245.6h306.4v612.9H961.9c-168.5,0-306.4-137.9-306.4-306.4l0,0
			C655.5,383.5,793.4,245.6,961.9,245.6"/>
	</defs>
	<clipPath id="SVGID_17_">
		<use xlink:href="#SVGID_16_"  style="overflow:visible;"/>
	</clipPath>
	<linearGradient id="SVGID_18_" gradientUnits="userSpaceOnUse" x1="961.9373" y1="483.5627" x2="961.9373" y2="-109.3672">
		<stop  offset="0" style="stop-color:#2BC5FF"/>
		<stop  offset="0.1362" style="stop-color:#53D0FF"/>
		<stop  offset="0.3626" style="stop-color:#90E1FF"/>
		<stop  offset="0.5704" style="stop-color:#C0EEFF"/>
		<stop  offset="0.7525" style="stop-color:#E2F7FF"/>
		<stop  offset="0.9019" style="stop-color:#F7FDFF"/>
		<stop  offset="1" style="stop-color:#FFFFFF"/>
	</linearGradient>
	<rect x="655.5" y="245.6" class="st8" width="612.9" height="612.9"/>
</g>
<g>
	<defs>
		<path id="SVGID_19_" d="M1043.2,894.1c-63,0-114-153.2-114-342.1c0-188.9,51.1-342.1,114-342.1h228.1v684.2H1043.2z"/>
	</defs>
	<clipPath id="SVGID_20_">
		<use xlink:href="#SVGID_19_"  style="overflow:visible;"/>
	</clipPath>
	<linearGradient id="SVGID_21_" gradientUnits="userSpaceOnUse" x1="1100.2297" y1="664.6069" x2="1100.1761" y2="126.402">
		<stop  offset="0" style="stop-color:#022FA0"/>
		<stop  offset="0.6782" style="stop-color:#197BDD"/>
		<stop  offset="1" style="stop-color:#24A1FB"/>
	</linearGradient>
	<rect x="929.2" y="209.9" class="st9" width="342.1" height="684.2"/>
</g>
<g>
	<defs>
		<path id="SVGID_22_" d="M1271.3,209.9c63,0,114,153.2,114,342.1c0,188.9-51.1,342.1-114,342.1c-63,0-114-153.2-114-342.1
			C1157.2,363.1,1208.3,209.9,1271.3,209.9"/>
	</defs>
	<clipPath id="SVGID_23_">
		<use xlink:href="#SVGID_22_"  style="overflow:visible;"/>
	</clipPath>
	<linearGradient id="SVGID_24_" gradientUnits="userSpaceOnUse" x1="1271.2557" y1="655.2571" x2="1271.3088" y2="-105.646">
		<stop  offset="0" style="stop-color:#4ACEFF"/>
		<stop  offset="3.839386e-02" style="stop-color:#54D1FF"/>
		<stop  offset="0.2903" style="stop-color:#90E1FF"/>
		<stop  offset="0.5213" style="stop-color:#C0EEFF"/>
		<stop  offset="0.7239" style="stop-color:#E2F7FF"/>
		<stop  offset="0.8904" style="stop-color:#F7FDFF"/>
		<stop  offset="1" style="stop-color:#FFFFFF"/>
	</linearGradient>
	<rect x="1157.2" y="209.9" class="st10" width="228.1" height="684.2"/>
</g>
<g>
	<defs>
		<path id="SVGID_25_" d="M1263,375.4h295.4c19.2,0,35,20.8,35,46.2c0,25.4-15.7,46.2-35,46.2H1263
			C1245.4,467.9,1243.7,375.4,1263,375.4"/>
	</defs>
	<clipPath id="SVGID_26_">
		<use xlink:href="#SVGID_25_"  style="overflow:visible;"/>
	</clipPath>
	<linearGradient id="SVGID_27_" gradientUnits="userSpaceOnUse" x1="1418.557" y1="467.9243" x2="1418.5836" y2="375.4865">
		<stop  offset="0" style="stop-color:#022FA0"/>
		<stop  offset="0.6782" style="stop-color:#197BDD"/>
		<stop  offset="1" style="stop-color:#24A1FB"/>
	</linearGradient>
	<rect x="1243.7" y="375.4" class="st11" width="349.8" height="92.4"/>
</g>
<g>
	<defs>
		<path id="SVGID_28_" d="M1263,636.1h295.4c19.2,0,35,20.8,35,46.2c0,25.4-15.7,46.2-35,46.2H1263
			C1245.4,728.5,1243.7,636.1,1263,636.1"/>
	</defs>
	<clipPath id="SVGID_29_">
		<use xlink:href="#SVGID_28_"  style="overflow:visible;"/>
	</clipPath>
	<linearGradient id="SVGID_30_" gradientUnits="userSpaceOnUse" x1="1418.557" y1="728.5958" x2="1418.5836" y2="636.157">
		<stop  offset="0" style="stop-color:#022FA0"/>
		<stop  offset="0.6782" style="stop-color:#197BDD"/>
		<stop  offset="1" style="stop-color:#24A1FB"/>
	</linearGradient>
	<rect x="1243.7" y="636.1" class="st12" width="349.8" height="92.4"/>
</g>
<path class="st5" d="M515.9,543l-0.4,3.1l11.7,29.7c1.8,3.5,4.7,20.2-3.7,15c-13.7-8.7-1.9-4.8-16.6-1c-20.7,5.3-63.9,0.8-24.3-52.5
	C486.7,519.4,515.4,536.1,515.9,543"/>
<g>
	<defs>
		<path id="SVGID_31_" d="M3081.9,185.2c-135.9,288.5-500,328.5-682.8,329.6l-2,0l0.3,72.7l2,0c201.5-1.2,593-41.4,748.4-371.2
			C3161.6,177.8,3102.3,147.8,3081.9,185.2"/>
	</defs>
	<clipPath id="SVGID_32_">
		<use xlink:href="#SVGID_31_"  style="overflow:visible;"/>
	</clipPath>
	<linearGradient id="SVGID_33_" gradientUnits="userSpaceOnUse" x1="2779.3296" y1="568.501" x2="2779.3296" y2="171.964">
		<stop  offset="0" style="stop-color:#022FA0"/>
		<stop  offset="0.6782" style="stop-color:#197BDD"/>
		<stop  offset="1" style="stop-color:#24A1FB"/>
	</linearGradient>
	<rect x="2397.1" y="147.8" class="st13" width="764.5" height="439.8"/>
</g>
<g>
	<defs>
		<path id="SVGID_34_" d="M2095.2,245.6h-306.4v612.9h306.4c168.5,0,306.4-137.9,306.4-306.4l0,0
			C2401.6,383.5,2263.8,245.6,2095.2,245.6"/>
	</defs>
	<clipPath id="SVGID_35_">
		<use xlink:href="#SVGID_34_"  style="overflow:visible;"/>
	</clipPath>
	<linearGradient id="SVGID_36_" gradientUnits="userSpaceOnUse" x1="2095.2117" y1="483.5608" x2="2095.1848" y2="-109.3672">
		<stop  offset="0" style="stop-color:#2BC5FF"/>
		<stop  offset="0.1362" style="stop-color:#53D0FF"/>
		<stop  offset="0.3626" style="stop-color:#90E1FF"/>
		<stop  offset="0.5704" style="stop-color:#C0EEFF"/>
		<stop  offset="0.7525" style="stop-color:#E2F7FF"/>
		<stop  offset="0.9019" style="stop-color:#F7FDFF"/>
		<stop  offset="1" style="stop-color:#FFFFFF"/>
	</linearGradient>
	<rect x="1788.8" y="245.6" class="st14" width="612.9" height="612.9"/>
</g>
<g>
	<defs>
		<path id="SVGID_37_" d="M2013.9,894.1c63,0,114-153.2,114-342.1c0-188.9-51.1-342.1-114-342.1h-228.1v684.2H2013.9z"/>
	</defs>
	<clipPath id="SVGID_38_">
		<use xlink:href="#SVGID_37_"  style="overflow:visible;"/>
	</clipPath>
	<linearGradient id="SVGID_39_" gradientUnits="userSpaceOnUse" x1="1956.9219" y1="664.6069" x2="1956.9755" y2="126.402">
		<stop  offset="0" style="stop-color:#022FA0"/>
		<stop  offset="0.6782" style="stop-color:#197BDD"/>
		<stop  offset="1" style="stop-color:#24A1FB"/>
	</linearGradient>
	<rect x="1785.9" y="209.9" class="st15" width="342.1" height="684.2"/>
</g>
<g>
	<defs>
		<path id="SVGID_40_" d="M1785.9,209.9c-63,0-114,153.2-114,342.1c0,188.9,51.1,342.1,114,342.1c63,0,114-153.2,114-342.1
			C1899.9,363.1,1848.9,209.9,1785.9,209.9"/>
	</defs>
	<clipPath id="SVGID_41_">
		<use xlink:href="#SVGID_40_"  style="overflow:visible;"/>
	</clipPath>
	<linearGradient id="SVGID_42_" gradientUnits="userSpaceOnUse" x1="1785.8973" y1="655.2592" x2="1785.8441" y2="-105.644">
		<stop  offset="0" style="stop-color:#4ACEFF"/>
		<stop  offset="3.839386e-02" style="stop-color:#54D1FF"/>
		<stop  offset="0.2903" style="stop-color:#90E1FF"/>
		<stop  offset="0.5213" style="stop-color:#C0EEFF"/>
		<stop  offset="0.7239" style="stop-color:#E2F7FF"/>
		<stop  offset="0.8904" style="stop-color:#F7FDFF"/>
		<stop  offset="1" style="stop-color:#FFFFFF"/>
	</linearGradient>
	<rect x="1671.9" y="209.9" class="st16" width="228.1" height="684.2"/>
</g>
<path class="st17" d="M1774.7,364.7c12,0,21.8,25.6,21.8,57.3s-9.8,57.3-21.8,57.3s-21.8-25.6-21.8-57.3S1762.6,364.7,1774.7,364.7"
	/>
<path class="st17" d="M1774.7,624.6c12,0,21.8,25.6,21.8,57.3c0,31.6-9.8,57.3-21.8,57.3s-21.8-25.6-21.8-57.3
	C1752.9,650.2,1762.6,624.6,1774.7,624.6"/>
<g>
	<defs>
		<path id="SVGID_43_" d="M2325,617.8c-14.2,62.3-93.8,207.3-94.3,278.7c-0.5,74.1,4.9,119.8,9.6,190.3c0.8,12.7-1.3,28.3-15,35.8
			c-12.5,6.9-37.6,12.5-45,19.6c-5.3,5.1-25.8,34.1,47.4,32.1c52-1.4,64.4-5,70-13.4c0.4-0.6,15.5-112,22-226.1
			c2.3-41.4,111.9-163.4,118.7-174.7c4.5,20.2,46,107.2,86.8,174.1c56.4,92.6,82,183.4,82,183.5c-0.9,6.3,3.8,11.1-5.5,21.5
			c-2.8,10.2-9.6,28,40.8,27.6c50.4-0.4,36.4-34.3,36.6-37.3c-9.3-64.3-26.7-144.1-78.5-249.5c-29.7-60.3-19.2-210.8-24.4-280.1
			c0,0-80.6,7-117.2-13.6c-55.6-31.4-89.9-159.2-79.6-27.7C2381.5,583.1,2333.7,583.8,2325,617.8"/>
	</defs>
	<clipPath id="SVGID_44_">
		<use xlink:href="#SVGID_43_"  style="overflow:visible;"/>
	</clipPath>
	<linearGradient id="SVGID_45_" gradientUnits="userSpaceOnUse" x1="2434.3384" y1="1078.5328" x2="2398.5793" y2="141.858">
		<stop  offset="0" style="stop-color:#031542"/>
		<stop  offset="0.1083" style="stop-color:#051C4C"/>
		<stop  offset="0.2906" style="stop-color:#093066"/>
		<stop  offset="0.5245" style="stop-color:#115191"/>
		<stop  offset="0.7981" style="stop-color:#1B7DCB"/>
		<stop  offset="1" style="stop-color:#24A1FB"/>
	</linearGradient>
	<rect x="2154.5" y="427" class="st18" width="538.5" height="749.2"/>
</g>
<path class="st19" d="M2738.5,512.5c1.3,7.3-0.4,11.4,3.4,17.8c2.7,4.6,2.8,12.7,4,18c0.9,4.1-2.3,12.6-9.4,14.4
	c-0.8,0.2-1.5,0.1-2.2-0.3c-0.4,3.5-6,2.1-8,1.6c-0.7,3.4-6.7,2.9-8.7,1.5c-0.5,5.5-18.4,3.3-16.7-2.7c-4.9-2.4-1.3-14.4-1.7-18.7
	c-0.8-0.3,6.2-14,6.8-16.8c0.8-4.2,2.8-8.1,1.4-12.2L2738.5,512.5z"/>
<g>
	<defs>
		<path id="SVGID_46_" d="M2542.1,319.6c-31.9-27.4,10-91.5,16.5-90.8c42.4,4.1,134.4,115.7,159.2,157.9
			c20.4,34.6,25.8,107.7,20.9,145.6c-1.5,11.6-28,16.9-31.9,12.4c-15-8.3,6.3-50.3-51.1-118.2
			C2608.4,370.5,2558.2,333.4,2542.1,319.6"/>
	</defs>
	<clipPath id="SVGID_47_">
		<use xlink:href="#SVGID_46_"  style="overflow:visible;"/>
	</clipPath>
	<linearGradient id="SVGID_48_" gradientUnits="userSpaceOnUse" x1="2694.531" y1="459.4933" x2="2585.8621" y2="345.6547">
		<stop  offset="0" style="stop-color:#000446"/>
		<stop  offset="1" style="stop-color:#0008A5"/>
	</linearGradient>
	<rect x="2510.3" y="228.2" class="st20" width="233.4" height="321"/>
</g>
<path class="st19" d="M2496.3,62.6c0,0-50.8-19-74.2,19.7c-5.9,9.7-15,11.2-14.8,24.3c0.1,4.4,0,14.2-1.4,22.5
	c-1.2,7-6.6,17.4-7.7,23c-1.4,7,9.1,10.8,9.3,13.9c1.8,24.6-1.8,38.8,9.5,42.9c28.5,4,73.7,3.4,86.8-20.8
	c13.1-24.2,24.9-59.1,24.4-82.5C2527.5,82.3,2509.7,69.3,2496.3,62.6"/>
<path class="st19" d="M2435.1,205.4c0,0,2,13.3-1.3,19.9c-3.4,6.6,63.9,6.7,63.9,6.7s5.5-35.7,15.8-65.8
	C2523.8,136.1,2435.1,205.4,2435.1,205.4"/>
<g>
	<defs>
		<path id="SVGID_49_" d="M2486.5,199c-12.6-3.7-24.4-7.5-34.9-19c-3.7-4.1-9.7-39.3-11.8-40c-7.9-2.8-11.7,24.5-11.7,24.5
			c-1.2-1.4-5.4-2.6-6.3-7.1c-0.4-2,2.2-13.2,0.5-16.1c-1.3-2.1-9.9-9.5-11.8-12.3c-15.3-22.7-32.7-47.2-12.1-64.7
			c0.8-0.7,6.5-4.7,13.1-4.8c9.1-0.1,16.2-3.4,19.9-5.1c50-23.6,148,12.5,96.3,113.5C2520.6,182,2498.4,197.8,2486.5,199"/>
	</defs>
	<clipPath id="SVGID_50_">
		<use xlink:href="#SVGID_49_"  style="overflow:visible;"/>
	</clipPath>
	<linearGradient id="SVGID_51_" gradientUnits="userSpaceOnUse" x1="2473.9663" y1="187.0851" x2="2487.6267" y2="-21.9773">
		<stop  offset="0" style="stop-color:#031542"/>
		<stop  offset="0.1083" style="stop-color:#051C4C"/>
		<stop  offset="0.2906" style="stop-color:#093066"/>
		<stop  offset="0.5245" style="stop-color:#115191"/>
		<stop  offset="0.7981" style="stop-color:#1B7DCB"/>
		<stop  offset="1" style="stop-color:#24A1FB"/>
	</linearGradient>
	<rect x="2377.9" y="30.7" class="st21" width="201.6" height="168.3"/>
</g>
<path class="st22" d="M2429.7,224.5c0,0,0.2-12.5,5.9-13.7c5.7-1.2,66.3-5.1,73.3-2.4l0.8,15.9
	C2509.7,224.3,2491.9,229.7,2429.7,224.5"/>
<path class="st19" d="M2432.2,147.8c1.1-4.4,12-22.7,16.3-9c4.3,13.6-6.5,31.9-12.6,30.4C2429.8,167.6,2429.5,159.1,2432.2,147.8"/>
<g>
	<defs>
		<path id="SVGID_52_" d="M2333.2,463.7c-5.9,6.6-26.8,34.7-34.3,39.8c-32,15.8-138.5,83.6-146.4,56.3c-7.9-27.3,0.8-35.7,0.8-35.7
			s99.5-89.2,112.4-97.2c10.5-14.7,53.1-130.8,76.6-161.5l0,0c40.2-54.9,108.2-44.2,168.2-44.2c26,0,66.6,5.5,78.9,26.4
			c68.6,116.3,4,359.4-2.9,400.6c-25.1,40.5-200.4,27.5-258.3-5.3L2333.2,463.7z"/>
	</defs>
	<clipPath id="SVGID_53_">
		<use xlink:href="#SVGID_52_"  style="overflow:visible;"/>
	</clipPath>
	<linearGradient id="SVGID_54_" gradientUnits="userSpaceOnUse" x1="2327.1816" y1="587.4423" x2="2453.905" y2="351.3523">
		<stop  offset="0" style="stop-color:#000446"/>
		<stop  offset="1" style="stop-color:#0008A5"/>
	</linearGradient>
	<rect x="2144.5" y="210.4" class="st23" width="513.4" height="478.2"/>
</g>
<path class="st5" d="M2153.5,531.2l-3.2,1l-34.3-1.8c-4-1.2-29.1-4-21.6,3.3c5.2,5.1,20.4,12.7,20.2,13.4
	c-3.5,8.7-47.5,26.5-47.9,27.3c-5.1,11.1,23.5,1.5,28.5,0.1c1.3-0.4-18.2,11-17.2,11.8c1.3,0.9,4.5,3.4,9.9,1.7
	c6.6-2.1,17.4-7.5,18.8-6.7c1.5,0.8-17.5,11.8-16,12.4c1.1,0.5,3.4,1.7,7.5,0.3c6.8-2.3,16.4-8,18.2-7.5c1.8,0.5-12.2,7.5-10.5,7.8
	c1.3,0.2,2,2.5,3.3,2.2c34.6-8.9,24.5-16.6,56.2-31.7C2183.2,557.3,2160.7,530.4,2153.5,531.2"/>
<path class="st24" d="M1050.2,234.9h93.2c10.5,0,19.1,8.6,19.1,19.1c0,10.5-8.6,19.1-19.1,19.1h-93.2c-10.5,0-19.1-8.6-19.1-19.1
	C1031,243.5,1039.6,234.9,1050.2,234.9"/>
<path class="st24" d="M1907.7,234.9h93.2c10.5,0,19.1,8.6,19.1,19.1c0,10.5-8.6,19.1-19.1,19.1h-93.2c-10.5,0-19.1-8.6-19.1-19.1
	C1888.5,243.5,1897.2,234.9,1907.7,234.9"/>
</svg>
